<svg xmlns="http://www.w3.org/2000/svg" viewBox="0 0 42.07 42.07"><g id="b"><path d="m41.01 30.39-12.78-2.25 2.59-14.66 10.2-1.8a1.284 1.284 0 1 0-.45-2.53l-9.28 1.64 1.64-9.28c.12-.7-.34-1.36-1.04-1.49-.7-.12-1.36.34-1.49 1.04l-1.8 10.2-14.66 2.59-2.26-12.79a1.284 1.284 0 1 0-2.53.45l2.25 12.78-10.34 1.82a1.284 1.284 0 1 0 .45 2.53l10.34-1.82 1.53 8.7-11.87-2.09c-.7-.12-1.36.34-1.49 1.04s.34 1.36 1.04 1.49l12.8 2.26 2.26 12.8a1.284 1.284 0 1 0 2.53-.45L16.56 28.7l8.7 1.53-1.82 10.34c-.12.7.34 1.36 1.04 1.49s1.36-.34 1.49-1.04l1.82-10.34 12.78 2.25c.7.12 1.36-.34 1.49-1.04s-.34-1.36-1.04-1.49Zm-15.31-2.7-9.62-1.7-1.7-9.62 13.74-2.42-2.42 13.74Z" style="fill:#575756" id="c"/></g></svg>