<?xml version="1.0" encoding="UTF-8"?><svg xmlns="http://www.w3.org/2000/svg" viewBox="0 0 42.07 42.07"><defs><style>.d{fill:#575756;}</style></defs><g id="a"/><g id="b"><g id="c"><path class="d" d="M41.01,30.39l-12.78-2.25,2.59-14.66,10.2-1.8c.7-.12,1.16-.79,1.04-1.49s-.79-1.16-1.49-1.04l-9.28,1.64,1.64-9.28c.12-.7-.34-1.36-1.04-1.49-.7-.12-1.36,.34-1.49,1.04l-1.8,10.2-14.66,2.59L11.68,1.06c-.12-.7-.79-1.16-1.49-1.04s-1.16,.79-1.04,1.49l2.25,12.78-10.34,1.82c-.7,.12-1.16,.79-1.04,1.49s.79,1.16,1.49,1.04l10.34-1.82,1.53,8.7L1.51,23.43c-.7-.12-1.36,.34-1.49,1.04s.34,1.36,1.04,1.49l12.8,2.26,2.26,12.8c.12,.7,.79,1.16,1.49,1.04,.7-.12,1.16-.79,1.04-1.49l-2.09-11.87,8.7,1.53-1.82,10.34c-.12,.7,.34,1.36,1.04,1.49s1.36-.34,1.49-1.04l1.82-10.34,12.78,2.25c.7,.12,1.36-.34,1.49-1.04s-.34-1.36-1.04-1.49Zm-15.31-2.7l-9.62-1.7-1.7-9.62,13.74-2.42-2.42,13.74Z"/></g></g></svg>