<?xml version="1.0" encoding="UTF-8"?><svg xmlns="http://www.w3.org/2000/svg" viewBox="0 0 535.49 129.08"><defs><style>.d{fill:#c67c3b;}</style></defs><g id="a"/><g id="b"><g id="c"><g><path class="d" d="M47.53,20.7h-12.25l-3.14,7.88h-2.56L40.34,2.1h2.14l10.75,26.48h-2.56l-3.14-7.88Zm-.84-2.1l-5.28-13.2-5.28,13.2h10.56Z"/><path class="d" d="M90.85,4.25h-7.88V28.59h-2.41V4.25h-7.88V2.1h18.18v2.14Z"/><path class="d" d="M96.82,15.35c0-8.19,5.74-13.89,13.89-13.89s13.81,5.7,13.81,13.89-5.7,13.89-13.81,13.89-13.89-5.7-13.89-13.89Zm25.33,0c0-6.85-4.67-11.75-11.44-11.75s-11.52,4.9-11.52,11.75,4.75,11.75,11.52,11.75,11.44-4.9,11.44-11.75Z"/><path class="d" d="M133.4,17.34V2.1h2.37v15.23c0,6.31,3.1,9.3,7.65,9.3s7.65-2.98,7.65-9.3V2.1h2.37v15.23c0,7.54-3.67,11.48-10.03,11.48s-10.03-3.94-10.03-11.48Z"/><path class="d" d="M170.52,17.83h-3.94v10.75h-2.33V2.1h7.46c5.89,0,9.11,3.64,9.11,7.88,0,3.48-2.18,7.04-7.46,7.77l9.15,10.83h-3.02l-8.96-10.75Zm-3.94-2.1h5.13c4.55,0,6.74-2.56,6.74-5.74s-2.18-5.74-6.74-5.74h-5.13V15.73Z"/><path class="d" d="M191.45,2.1h2.45V28.59h-2.45V2.1Z"/><path class="d" d="M203.54,23.19l2.03-1.15c1.45,3.25,4.06,5.05,7.27,5.05,3.41,0,6.16-1.88,6.16-5.21,0-6.24-13.74-6.01-13.74-13.81,0-3.9,3.21-6.62,7.35-6.62,3.52,0,6.05,1.65,7.39,4.59l-1.91,1.03c-1.03-2.18-2.91-3.48-5.47-3.48-2.76,0-5.01,2.03-5.01,4.48,0,5.7,13.74,5.66,13.74,13.93,0,4.36-3.71,7.23-8.5,7.23-4.09,0-7.5-2.18-9.3-6.05Z"/><path class="d" d="M245.63,4.25h-7.88V28.59h-2.41V4.25h-7.88V2.1h18.18v2.14Z"/><path class="d" d="M251.67,10.49c2.49-2.3,2.79-4.52,2.6-7.88l-.15-2.6h2.22l.11,2.6c.15,3.87-.73,6.77-3.71,8.99l-1.07-1.11Z"/><path class="d" d="M264.19,23.19l2.03-1.15c1.45,3.25,4.06,5.05,7.27,5.05,3.41,0,6.16-1.88,6.16-5.21,0-6.24-13.74-6.01-13.74-13.81,0-3.9,3.21-6.62,7.35-6.62,3.52,0,6.05,1.65,7.39,4.59l-1.91,1.03c-1.03-2.18-2.91-3.48-5.47-3.48-2.76,0-5.01,2.03-5.01,4.48,0,5.7,13.74,5.66,13.74,13.93,0,4.36-3.71,7.23-8.5,7.23-4.09,0-7.5-2.18-9.3-6.05Z"/><path class="d" d="M318.22,29.24c-8.15,0-13.89-5.7-13.89-13.89s5.74-13.89,13.89-13.89c4.48,0,7.84,1.61,10.45,4.36l-1.68,1.61c-2.11-2.33-5.13-3.83-8.76-3.83-6.85,0-11.48,4.94-11.48,11.75s4.67,11.75,11.48,11.75c6.2,0,9.83-3.9,10.37-9.45h-9.99v-2.07h12.36c.19,7.88-4.59,13.66-12.74,13.66Z"/><path class="d" d="M339.84,17.34V2.1h2.37v15.23c0,6.31,3.1,9.3,7.65,9.3s7.65-2.98,7.65-9.3V2.1h2.37v15.23c0,7.54-3.67,11.48-10.03,11.48s-10.03-3.94-10.03-11.48Z"/><path class="d" d="M370.91,2.1h2.45V28.59h-2.45V2.1Z"/><path class="d" d="M393.06,2.1c8.3,0,14.01,4.82,14.01,13.24s-5.7,13.24-14.01,13.24h-8.3V2.1h8.3Zm0,24.3c6.77,0,11.6-3.87,11.6-11.06s-4.82-11.06-11.6-11.06h-5.93V26.41h5.93Z"/><path class="d" d="M432.78,26.44v2.14h-16.46V2.1h15.88v2.14h-13.51V14.08h12.93v2.07h-12.93v10.29h14.08Z"/><path class="d" d="M472.24,4.25h-7.88V28.59h-2.41V4.25h-7.88V2.1h18.18v2.14Z"/><path class="d" d="M478.2,15.35c0-8.19,5.74-13.89,13.89-13.89s13.81,5.7,13.81,13.89-5.7,13.89-13.81,13.89-13.89-5.7-13.89-13.89Zm25.33,0c0-6.85-4.67-11.75-11.44-11.75s-11.52,4.9-11.52,11.75,4.75,11.75,11.52,11.75,11.44-4.9,11.44-11.75Z"/></g><g><path class="d" d="M19.34,102.45c-4.02,0-6.92-1.5-7.1-5.98l.28-.47c1.31,.19,2.52,.19,3.83,.19,9.16,0,15.89-5.23,15.89-14.58s-6.92-13.92-15.79-13.92c-2.24,0-4.39,.19-6.54,.47v59.44H0V61.98c5.98-.37,12.06-.65,18.13-.65,12.8,0,24.11,4.67,24.11,19.44,0,12.62-10.65,21.68-22.9,21.68Z"/><path class="d" d="M126.26,128.34c-3.64,0-6.45-2.71-7.01-6.45h-.19c-5.42,4.58-12.71,7.2-20,7.2-14.11,0-24.58-8.04-24.58-27.38V61.61h9.91v40.28c0,12.06,5.98,19.25,18.22,19.25,6.17,0,11.68-1.87,15.7-5.89V61.61h9.91v55.79c0,1.96,.65,4.39,3.18,4.39,.75,0,1.4-.19,2.06-.56l.37,.37c-.28,4.49-3.64,6.73-7.57,6.73Z"/><path class="d" d="M176.82,129.08c-6.17,0-14.58-1.59-14.58-8.6,0-.47,.09-1.03,.19-1.5l.56-.37c3.46,2.43,8.97,3.36,13.55,3.36,7.01,0,13.64-3.46,13.64-10.84,0-6.26-5.7-9.35-12.24-12.8-9.72-5.14-15.05-9.81-15.05-18.88,0-11.12,9.9-18.69,22.99-18.69,3.93,0,8.04,.47,11.31,1.03l-1.12,7.85c-2.9-.93-6.73-1.87-10.28-1.87-9.81,0-13.27,4.95-13.27,9.91,0,6.45,6.45,9.44,12.06,12.52,9.44,5.05,15.42,9.53,15.42,19.44,0,8.78-6.45,19.44-23.18,19.44Z"/><path class="d" d="M277.93,127.59v-32.33h-35.23v32.33h-9.91V61.61h9.91v26.35h35.23v-26.35h9.91V127.59h-9.91Z"/><path class="d" d="M369.61,128.34c-11.59,0-18.97-14.86-25.7-31.21-2.62,.47-6.07,.37-7.76,.37v30.09h-9.91V61.61h9.91v29.72h2.9c11.5,0,20.84-6.92,20.84-22.43,0-2.43-.19-4.95-.56-7.29h9.25c.37,2.24,.37,4.49,.37,6.73,0,14.39-7.76,22.9-16.54,26.73,7.76,14.95,15.98,26.91,21.87,26.91,.75,0,1.4-.19,1.96-.47l.47,.37c0,4.11-3.08,6.45-7.1,6.45Z"/><path class="d" d="M444.47,127.59l-8.32-23.18h-22.52l-8.04,23.18h-8.32l23.27-66.16h10.65l23.92,66.16h-10.65Zm-16.17-45.89c-1.5-4.3-2.9-9.25-3.36-11.4h-.28c-.56,2.15-1.87,7.1-3.36,11.59l-5.51,15.79h18.13l-5.61-15.98Z"/><path class="d" d="M528.49,128.34c-11.03,0-18.78-14.21-25.61-30.47-2.62,.28-5.42,.28-8.04,.19v29.53h-9.91V61.98c5.7-.28,11.31-.65,17.1-.65,11.31,0,24.3,3.36,24.39,17.19,0,9.07-6.73,15.14-14.58,17.76,7.29,13.92,15.42,25.7,21.31,25.7,.65,0,1.31-.19,1.87-.47l.47,.37c0,4.11-3.08,6.45-7.01,6.45Zm-27.94-60.65c-1.87,0-3.93,.19-5.7,.47v23.64c2.06,.09,4.11,.28,6.26,.28,7.76,0,15.14-3.55,15.14-12.24,0-9.16-7.48-12.15-15.7-12.15Z"/></g></g></g></svg>